<svg width="195" height="68" viewBox="0 0 195 68" fill="none" xmlns="http://www.w3.org/2000/svg">
<g clip-path="url(#clip0_182_35)">
<path d="M19.4056 67.3685C19.3521 67.9678 18.895 68.857 18.2406 68.7865C17.5863 68.716 17.2651 67.9184 17.1716 67.4479C17.0302 66.7287 17.3426 66.1246 17.8396 65.6492C17.7141 63.8643 17.6294 62.0584 17.8867 60.2136L16.6019 60.3092C16.6634 61.1959 16.6235 62.1273 16.5555 62.9978C17.1085 63.7445 17.3458 64.7414 16.7385 65.5674C16.5883 65.7723 16.3015 65.9642 16.0929 65.9796C15.8229 65.9999 15.5104 65.8857 15.3251 65.6897C14.5221 64.841 14.7602 63.5428 15.5919 62.865C15.5065 61.7636 15.5248 60.6898 15.6511 59.6265C15.3842 59.1527 15.1141 58.6434 14.9791 58.1315C14.5309 58.3737 14.0682 58.3931 13.5705 58.189C13.6583 59.1762 13.6184 60.0808 13.5257 60.9935C14.1066 61.7782 14.248 62.8885 13.5257 63.6716C13.1646 64.0628 12.5741 64.0344 12.2201 63.653C11.5338 62.9152 11.5849 61.383 12.5821 60.7522C12.4734 59.6443 12.5365 58.5049 12.6588 57.4132C12.491 56.9378 12.3024 56.3953 12.2098 55.8826C11.7208 55.9604 11.219 55.9563 10.6956 55.8656L10.6709 58.5397C11.0112 59.3139 11.358 60.182 10.7939 61.0218C10.6349 61.2583 10.3521 61.4737 10.0908 61.5004C9.74562 61.5353 9.43161 61.4081 9.21188 61.1052C8.69013 60.3861 8.67895 59.2621 9.34372 58.6361C9.54986 58.4417 9.77518 58.3202 9.71525 57.9761C9.53068 56.9095 9.66732 55.8826 9.82552 54.8347C9.66012 54.3723 9.48834 53.8159 9.49553 53.2936C9.0393 53.2968 8.58946 53.2798 8.09887 53.1924L8.02776 55.9539C8.57428 56.6593 8.78841 57.6618 8.2323 58.4879C8.05972 58.7446 7.7473 58.9236 7.46845 58.9325C7.16403 58.9422 6.8636 58.7899 6.67025 58.5089C6.09896 57.6796 6.1453 56.3256 7.13607 55.7733C6.90595 54.5772 7.10251 53.4175 7.16882 52.2206C7.20158 51.627 6.73496 50.9289 7.06016 50.2924L5.84887 50.1425C5.91679 51.0455 5.81931 52.0902 5.77296 53.0288C6.27554 53.8192 6.52722 54.7796 5.86964 55.6154C5.70345 55.8268 5.42619 55.9831 5.14335 55.9871C4.87568 55.9903 4.56806 55.8243 4.38509 55.5619C3.86094 54.8104 3.90089 53.7819 4.50015 53.0701L4.90125 52.7858C4.6967 51.5573 4.82774 50.3806 4.89725 49.1772C4.93401 48.5407 4.64956 47.858 4.95878 47.2101L3.90489 47.1437L3.86014 50.1004C4.33156 50.9119 4.63278 52.0011 3.90329 52.7721C3.70753 52.9786 3.36636 53.1349 3.0915 53.0976C2.81664 53.0604 2.55297 52.8296 2.39876 52.5761C1.79951 51.5921 2.08635 50.4341 2.98763 49.8429C2.75832 48.6395 2.93809 47.4774 2.90932 46.3299C2.89015 45.5621 2.48026 44.8252 2.92291 44.0097L2.21419 43.7724L2.10792 46.3226C2.66723 47.1381 2.83182 48.2832 2.08156 49.076C1.84585 49.3246 1.42318 49.3716 1.09878 49.2169C0.31815 48.8436 0.419625 47.7819 0.509912 46.887C0.542672 46.5598 0.921399 46.3023 1.20824 46.129C1.15071 44.9475 1.05723 43.7756 1.33369 42.6176C1.39521 42.3617 1.43676 42.1357 1.47111 41.8596C1.64689 40.4327 2.10712 41.1032 1.7252 39.7402C1.21383 37.9149 0.54427 34.7104 0.609788 32.8664C0.73683 29.3128 2.03601 25.6678 4.18693 22.8609C6.69981 19.5819 10.1699 17.2601 14.2288 16.328C13.6727 15.8218 13.6256 15.1035 14.0307 14.437C12.5038 12.8425 11.8989 10.5668 12.6268 8.32684C13.2341 6.45937 14.8704 4.82917 17.0062 4.40968L17.0373 1.05373C17.0421 0.501429 17.5008 0.217986 17.9762 0.209888C18.4596 0.20179 18.9789 0.481183 18.9853 1.06426L19.0229 4.35137C20.1702 4.55302 21.1794 5.01786 22.0064 5.76048C24.5248 8.02234 24.715 11.8286 22.3979 14.3155C22.9212 14.9618 22.8973 15.7554 22.3028 16.3863C26.2986 17.4059 29.7272 19.6985 32.2328 22.9411C34.2535 25.5552 35.4281 28.6593 35.7988 31.9578C36.0345 34.0593 36.0105 36.0879 35.4193 38.1222L34.7745 40.3379C35.1508 41.0384 35.0485 41.7462 35.0957 42.5107C35.1708 43.7222 35.3522 44.9151 35.1236 46.1347C35.5112 46.3137 35.7141 46.5283 35.8651 46.8789C35.9202 47.0061 36.0697 47.2045 36.1336 47.3219C36.2391 47.5163 36.2422 48.0256 36.1216 48.2087L35.7461 48.7828C35.5615 49.0638 35.3018 49.2768 34.9902 49.3238C34.6786 49.3708 34.335 49.1635 34.1433 48.8954C33.572 48.0945 33.7725 47.1138 34.2431 46.3728L34.1393 43.6509C33.9475 43.6712 33.7382 43.7222 33.4321 43.8137C33.7797 44.6114 33.4242 45.3289 33.4393 46.0877C33.4625 47.2385 33.5991 48.3909 33.4513 49.587C34.3758 50.2527 34.6322 51.6083 33.8332 52.5048C33.4673 52.9154 32.8393 52.9243 32.4925 52.5024C31.8158 51.6796 31.95 50.562 32.5732 49.7749C32.4965 48.8177 32.4238 47.8685 32.5029 46.8141L31.3603 46.9048C31.7023 47.5924 31.3491 48.2127 31.3667 48.8492C31.3979 50.0227 31.5729 51.1872 31.3427 52.3979C32.4358 52.9292 32.5069 54.3942 31.8126 55.2429C31.6584 55.4316 31.3427 55.583 31.1358 55.5781C30.8681 55.5717 30.5733 55.4089 30.4015 55.1935C29.7695 54.4023 29.9397 53.3551 30.491 52.6077L30.3895 49.8648L29.342 49.9579C29.5833 50.6406 29.1135 51.2893 29.1119 51.9161C29.1087 53.0353 29.4004 54.1625 29.1087 55.2906L29.4803 55.6389C30.157 56.273 30.1171 57.4132 29.561 58.1307C29.3716 58.3745 29.0744 58.5097 28.8011 58.5194C28.5478 58.5292 28.2466 58.3332 28.0852 58.1194C27.4596 57.2877 27.6633 56.3191 28.2082 55.5036C28.1675 54.6549 28.11 53.6888 28.1699 52.7729C27.6905 52.8263 27.3901 52.8352 26.8635 52.7866C27.1152 53.4313 26.6118 54.071 26.6206 54.6549C26.635 55.6875 26.8499 56.6933 26.6662 57.738C26.615 58.0287 26.766 58.1178 26.9594 58.2886C27.7001 58.9406 27.7472 60.165 27.1208 60.9182C26.9314 61.1457 26.603 61.2494 26.3649 61.247C26.0845 61.2445 25.8216 61.0388 25.6626 60.8404C25.0002 60.0144 25.363 59.1608 25.6642 58.3251C25.8376 57.4545 25.4525 56.4098 25.7193 55.4502C25.1281 55.519 24.8692 55.5393 24.2859 55.3457C24.4457 56.0592 23.8529 56.6512 23.7857 57.2699C23.6699 58.3397 24.0095 59.3965 23.7434 60.5157C24.8253 61.1393 24.9052 62.6528 24.0622 63.4667C23.6443 63.8708 23.0299 63.7064 22.7351 63.2975C22.1374 62.4674 22.3411 61.4842 22.8229 60.6963L22.7918 57.8716C22.3188 57.8967 21.9432 57.8724 21.4095 57.725C21.4598 58.4287 21.0044 59.0815 20.7335 59.6354C20.7863 60.6898 20.855 61.843 20.7775 62.8974C21.7307 63.5088 21.7467 65.0516 21.0675 65.7237C20.7016 66.0857 20.1303 66.1197 19.7548 65.7197C19.0564 64.9771 19.1779 63.8101 19.8059 63.0278L19.7787 60.1488L18.5946 60.0193C18.8687 61.8422 18.8191 63.7493 18.6801 65.5998C19.1571 66.063 19.4791 66.5587 19.4064 67.3685H19.4056ZM18.5882 4.27201L18.5491 1.20355C18.5451 0.873952 18.319 0.653676 18.0113 0.639909C17.7932 0.629381 17.4568 0.848847 17.4568 1.15739L17.4528 4.32222L18.5874 4.27201H18.5882ZM19.4567 6.4043L19.9553 5.14177C19.3313 4.91339 18.7736 4.78544 18.1568 4.81865L18.1647 6.13138L19.4567 6.4043ZM17.8403 6.15973L17.834 4.82269C17.3138 4.87614 16.9958 4.93445 16.4589 5.08346L16.9407 6.32736L17.8403 6.15973ZM16.645 6.40268L16.1544 5.21708C15.5584 5.46408 15.1373 5.71837 14.6611 6.17673L15.5328 7.12262L16.6458 6.40268H16.645ZM20.7959 7.28135L21.7667 6.27796C21.368 5.82851 20.8862 5.50457 20.2861 5.26729L19.7548 6.5363L20.7959 7.28135ZM14.5804 8.35761L15.2915 7.34694L14.4086 6.41887C13.9484 6.88858 13.656 7.27973 13.3995 7.81584L14.5804 8.35842V8.35761ZM17.4424 6.57841C16.8056 6.66182 16.3206 6.92583 15.902 7.34694C16.7865 7.53563 16.86 7.26191 17.4424 6.57841ZM18.8926 7.41254L18.0105 6.49905L17.1316 7.40363L18.8934 7.41254H18.8926ZM20.3005 7.40201C19.7659 6.86509 19.2202 6.63591 18.5435 6.5857L19.3577 7.42064L20.3005 7.4012V7.40201ZM23.0595 8.10414C22.7758 7.44979 22.4882 6.97118 22.0096 6.49257L21.0148 7.53077L21.7259 8.64267L23.0595 8.10414ZM16.3366 7.73323L15.572 7.70165L15.548 8.53416L16.3374 7.73323H16.3366ZM19.4439 12.5104C19.8235 12.065 20.1495 11.7322 20.5346 11.3734L20.5713 9.05974L19.205 7.70975L16.8272 7.70651L15.5424 9.00548L15.5472 10.9928L17.1021 12.5444L19.4424 12.5112L19.4439 12.5104ZM20.5482 7.68869L19.7036 7.73647L20.561 8.61676L20.5482 7.68869ZM21.5629 9.5675C21.5118 8.90344 21.2689 8.45803 20.9205 8.00534C20.7575 8.94474 20.8702 9.0152 21.5629 9.5675ZM15.1932 8.09766C14.864 8.50662 14.6587 8.94231 14.6451 9.43307C15.2683 8.89453 15.2899 8.91559 15.1932 8.09766ZM14.1825 9.8064L14.4398 8.65077L13.2852 8.11628C13.0351 8.64996 12.9145 9.17149 12.845 9.75295L14.1825 9.8064ZM23.5301 10.0348C23.4526 9.38772 23.3671 8.97957 23.2001 8.42888L21.8362 8.95851L22.0311 10.0469L23.5301 10.0348ZM15.2084 10.6017L15.2132 9.36828L14.5484 10.0202L15.2084 10.6008V10.6017ZM21.6556 10.1595L20.9045 9.42254V10.9321C21.2321 10.6316 21.4119 10.4421 21.6556 10.1595ZM14.3423 11.3143L14.1745 10.123L12.825 10.0647C12.8154 10.6316 12.8889 11.1191 13.0607 11.7435L14.3431 11.3151L14.3423 11.3143ZM23.1841 12.065C23.3831 11.4431 23.4773 10.9726 23.5181 10.3547L22.0271 10.3628L21.7946 11.4585L23.1841 12.065ZM15.2228 11.0576L14.5724 10.4931C14.6243 11.1475 14.7602 11.6601 15.206 12.1784L15.2236 11.0584L15.2228 11.0576ZM20.9229 12.2238C21.2681 11.8229 21.487 11.371 21.5453 10.7976C20.8878 11.3912 20.8126 11.3386 20.9229 12.2238ZM16.6211 12.5153L15.5512 11.4471L15.5304 12.5363L16.6211 12.5145V12.5153ZM15.0958 12.6967L14.4454 11.6253L13.1614 12.0982C13.4083 12.7259 13.6536 13.1599 14.0618 13.6742L15.0966 12.6967H15.0958ZM22.1662 13.8159C22.5585 13.3057 22.7998 12.9162 23.0706 12.3849L21.6708 11.7265L21.01 12.7785L22.1662 13.8159ZM20.5578 12.5461L20.5194 11.8407L19.8618 12.5266L20.5578 12.5461ZM15.8828 12.9315C16.3933 13.3996 17.0509 13.6952 17.7333 13.6653C16.9606 12.8044 17.0717 12.7655 15.8828 12.9315ZM18.9813 12.8878L17.4544 12.8765L18.2654 13.6871L18.9813 12.8886V12.8878ZM20.2509 12.9372C19.3992 12.6667 19.265 13.147 18.7912 13.6596C19.3768 13.5243 19.8442 13.3073 20.2509 12.9372ZM15.8093 15.0744L16.4029 13.7276L15.3379 12.9332L14.2968 13.9406C14.7386 14.4135 15.1621 14.7221 15.8093 15.0744ZM20.4994 15.0962C21.1378 14.7367 21.5126 14.4605 21.9281 14.0451L20.7951 12.9939L19.861 13.6782L20.4994 15.097V15.0962ZM18.0185 15.6429L18.0449 14.1171L16.709 13.8531L16.1105 15.2274C16.7553 15.4671 17.289 15.5716 18.0185 15.6429ZM20.1822 15.2153L19.5558 13.8021L18.4028 14.1026L18.3573 15.6307C19.0325 15.5651 19.579 15.4971 20.1822 15.2153ZM22.4059 15.5303C22.4618 15.2331 22.3675 14.8436 22.1606 14.6071C21.3895 15.2128 20.6496 15.6186 19.7707 15.9595C20.7136 15.9741 22.1694 16.792 22.4059 15.5303ZM16.4477 15.9352C15.6015 15.5392 14.9719 15.2145 14.2896 14.7059C14.097 14.9545 14.0619 15.3748 14.1641 15.6259C14.2464 15.8283 14.5157 16.2211 14.7746 16.1919C15.3794 16.1239 15.9131 16.0356 16.4485 15.936L16.4477 15.9352ZM16.7521 16.9175L17.114 16.3094L16.2823 16.3741L16.7529 16.9175H16.7521ZM19.7316 16.3652L18.9374 16.2834L19.3185 16.8641L19.7308 16.3652H19.7316ZM19.074 17.4107C19.074 16.8366 18.6146 16.3709 18.0481 16.3709C17.4816 16.3709 17.0222 16.8366 17.0222 17.4107C17.0222 17.9849 17.4816 18.4506 18.0481 18.4506C18.6146 18.4506 19.074 17.9849 19.074 17.4107ZM16.5284 17.5889C16.5284 17.0091 16.0642 16.5385 15.4921 16.5385C14.92 16.5385 14.4558 17.0091 14.4558 17.5889C14.4558 18.1687 14.92 18.6392 15.4921 18.6392C16.0642 18.6392 16.5284 18.1687 16.5284 17.5889ZM21.5533 17.5508C21.5533 16.9783 21.0955 16.5142 20.5306 16.5142C19.9657 16.5142 19.5079 16.9783 19.5079 17.5508C19.5079 18.1234 19.9657 18.5874 20.5306 18.5874C21.0955 18.5874 21.5533 18.1234 21.5533 17.5508ZM14.1521 17.2625L14.4062 16.6414L13.6152 16.843L14.1521 17.2625ZM23.924 18.0448C23.924 17.4682 23.463 17.0001 22.8933 17.0001C22.3236 17.0001 21.8625 17.4674 21.8625 18.0448C21.8625 18.6222 22.3236 19.0895 22.8933 19.0895C23.463 19.0895 23.924 18.6222 23.924 18.0448ZM14.0435 18.1663C14.0435 17.5921 13.584 17.1265 13.0175 17.1265C12.4511 17.1265 11.9916 17.5921 11.9916 18.1663C11.9916 18.7405 12.4511 19.2061 13.0175 19.2061C13.584 19.2061 14.0435 18.7405 14.0435 18.1663ZM24.7549 17.6294L24.1605 17.3727L24.2827 17.9298L24.7557 17.6294H24.7549ZM11.6457 17.9914L11.7687 17.4528L11.1231 17.7492L11.6457 17.9922V17.9914ZM26.2339 18.9883C26.2339 18.4141 25.7745 17.9493 25.2088 17.9493C24.6431 17.9493 24.1837 18.4149 24.1837 18.9883C24.1837 19.5616 24.6431 20.0273 25.2088 20.0273C25.7745 20.0273 26.2339 19.5616 26.2339 18.9883ZM11.8166 19.13C11.8166 18.5542 11.3564 18.0877 10.7883 18.0877C10.2202 18.0877 9.76 18.5542 9.76 19.13C9.76 19.7058 10.2202 20.1723 10.7883 20.1723C11.3564 20.1723 11.8166 19.7058 11.8166 19.13ZM27.128 18.8279L26.5351 18.4781L26.5911 19.0474L27.128 18.8287V18.8279ZM9.41723 19.1705L9.46517 18.6101L8.8739 18.9915L9.41723 19.1705ZM17.7277 20.4516L17.7053 18.8352C16.0282 18.8943 14.5373 19.164 12.9992 19.769L13.6248 21.3352C15.0071 20.8039 16.2735 20.4986 17.7285 20.4516H17.7277ZM22.9764 21.251L23.4997 19.8508C21.7762 19.1883 20.052 18.7955 18.2542 18.8911L18.1592 20.4055C19.7779 20.4363 21.348 20.6371 22.9764 21.2518V21.251ZM23.9447 19.6232L23.8361 19.1292L23.3375 19.4013L23.9447 19.6232ZM28.3329 20.2662C28.3329 19.6896 27.8719 19.2215 27.3022 19.2215C26.7325 19.2215 26.2715 19.6888 26.2715 20.2662C26.2715 20.8436 26.7325 21.3109 27.3022 21.3109C27.8719 21.3109 28.3329 20.8436 28.3329 20.2662ZM9.77039 20.4014C9.77039 19.8256 9.30936 19.3584 8.74127 19.3584C8.17317 19.3584 7.71215 19.8256 7.71215 20.4014C7.71215 20.9772 8.17317 21.4445 8.74127 21.4445C9.30936 21.4445 9.77039 20.9772 9.77039 20.4014ZM13.175 21.5303L12.5182 19.9479C10.7276 20.6314 9.30617 21.6291 8.01178 22.9718L9.22786 24.2384C10.4408 23.0844 11.6504 22.209 13.1757 21.5295L13.175 21.5303ZM29.3548 20.3893L28.7068 19.9147L28.6741 20.5181L29.3556 20.3893H29.3548ZM27.4012 23.9769C27.7568 23.5144 27.9598 23.2359 28.1987 22.8301C26.929 21.6097 25.5571 20.7221 23.9551 20.0257L23.4166 21.4097C24.9211 22.0478 26.1628 22.8917 27.4012 23.9769ZM7.40933 20.6314L7.37337 20.0872L6.86201 20.5286L7.41013 20.6314H7.40933ZM30.2409 21.8138C30.2409 21.2372 29.7799 20.7699 29.211 20.7699C28.6421 20.7699 28.1811 21.2372 28.1811 21.8138C28.1811 22.3904 28.6421 22.8577 29.211 22.8577C29.7799 22.8577 30.2409 22.3904 30.2409 21.8138ZM7.89992 21.9571C7.89992 21.3813 7.43889 20.9141 6.8708 20.9141C6.3027 20.9141 5.84168 21.3813 5.84168 21.9571C5.84168 22.5329 6.3027 23.0002 6.8708 23.0002C7.43889 23.0002 7.89992 22.5329 7.89992 21.9571ZM21.4766 25.0871L22.7502 21.7927C21.2042 21.2218 19.7396 21.0096 18.1951 21.0129L18.3421 24.4263C19.428 24.5259 20.3796 24.666 21.4766 25.0879V25.0871ZM17.8571 24.4522L17.7341 21.0412C16.3406 21.089 15.0678 21.3846 13.8102 21.9069L14.9855 25.0717C15.9675 24.7179 16.816 24.5697 17.8571 24.4522ZM31.1622 22.2292L30.6396 21.6486L30.5102 22.2713L31.1622 22.23V22.2292ZM24.504 27.0769L27.0313 24.4684C25.9239 23.3735 24.6359 22.5588 23.1953 21.979L21.9209 25.2774C22.9052 25.7593 23.7218 26.3359 24.5033 27.0761L24.504 27.0769ZM11.9141 27.089C12.6947 26.3084 13.5401 25.7723 14.5325 25.2523L13.3771 22.0681C11.9756 22.7378 10.8027 23.5355 9.64255 24.6369L11.9141 27.0898V27.089ZM31.8965 23.6456C31.8965 23.0698 31.4354 22.6026 30.8673 22.6026C30.2992 22.6026 29.8382 23.0698 29.8382 23.6456C29.8382 24.2214 30.2992 24.6887 30.8673 24.6887C31.4354 24.6887 31.8965 24.2214 31.8965 23.6456ZM6.32427 23.7501C6.32427 23.1751 5.86485 22.7095 5.29755 22.7095C4.73026 22.7095 4.27083 23.1751 4.27083 23.7501C4.27083 24.3251 4.73026 24.7907 5.29755 24.7907C5.86485 24.7907 6.32427 24.3251 6.32427 23.7501ZM31.8829 28.1718C31.1302 26.3003 29.8941 24.4814 28.5558 23.1913L27.7424 24.3324C28.9689 25.5965 29.9037 27.0008 30.6117 28.6941C31.0607 28.5613 31.4378 28.4099 31.8829 28.1726V28.1718ZM6.61272 27.8916C7.25272 26.621 8.00139 25.5876 8.89308 24.5591L7.66661 23.3031C6.57836 24.4676 5.75618 25.688 5.03308 27.1611L6.61192 27.8924L6.61272 27.8916ZM32.7818 24.3656L32.2864 23.6092L32.0882 24.3227L32.7818 24.3656ZM33.3211 25.7204C33.3211 25.1454 32.8609 24.679 32.2936 24.679C31.7263 24.679 31.266 25.1454 31.266 25.7204C31.266 26.2954 31.7263 26.7619 32.2936 26.7619C32.8609 26.7619 33.3211 26.2954 33.3211 25.7204ZM4.96836 25.8208C4.96836 25.2499 4.51213 24.7875 3.94883 24.7875C3.38553 24.7875 2.9293 25.2499 2.9293 25.8208C2.9293 26.3918 3.38553 26.8542 3.94883 26.8542C4.51213 26.8542 4.96836 26.3918 4.96836 25.8208ZM26.5911 30.2709L30.0659 28.9039C29.4331 27.3514 28.5374 25.9658 27.3797 24.8239L24.8021 27.4478C25.6402 28.2471 26.0909 29.2302 26.5919 30.2709H26.5911ZM10.1811 29.5615C10.6221 28.6917 11.0224 28.124 11.5849 27.4381L9.30377 24.981C8.41607 25.9925 7.70895 26.9789 7.15684 28.1386L10.1803 29.5615H10.1811ZM15.0782 27.2704L17.2587 25.0256C15.3802 25.2054 13.7902 25.9917 12.479 27.2704H15.0782ZM20.4147 27.2753L18.0793 24.9017L16.9846 25.9577L15.7126 27.2834L20.4147 27.2753ZM23.9767 27.2777C22.5633 25.9205 20.8007 25.109 18.8303 24.9948L21.0643 27.2777H23.9767ZM5.78175 25.1122L5.20966 25.16L5.37266 25.6977L5.78175 25.113V25.1122ZM34.0522 26.7667L33.6894 25.897L33.4114 26.6088L34.0522 26.7667ZM2.85979 26.6663L2.61369 26.1966L2.34523 26.8007L2.85899 26.6663H2.85979ZM34.3718 28.0114C34.3718 27.4373 33.9123 26.9716 33.3459 26.9716C32.7794 26.9716 32.3199 27.4373 32.3199 28.0114C32.3199 28.5856 32.7794 29.0513 33.3459 29.0513C33.9123 29.0513 34.3718 28.5856 34.3718 28.0114ZM3.96002 28.0932C3.96002 27.5174 3.49979 27.0502 2.9309 27.0502C2.36201 27.0502 1.90178 27.5166 1.90178 28.0932C1.90178 28.6698 2.36201 29.1363 2.9309 29.1363C3.49979 29.1363 3.96002 28.6698 3.96002 28.0932ZM4.31318 27.8114L4.65835 27.0477L4.04871 27.2372L4.31318 27.8114ZM5.37266 32.6364C5.45336 31.0556 5.83129 29.7833 6.42815 28.3637L4.83014 27.5847C4.10704 29.2918 3.71712 30.7033 3.5685 32.5449L5.37266 32.6364ZM14.5748 27.7458L12.1386 27.7191L12.153 30.2077L14.5748 27.7466V27.7458ZM24.262 27.715L21.531 27.7361L24.2484 30.4871L24.2628 27.715H24.262ZM24.2636 36.1235L24.2548 31.6581L24.1709 31.058L20.875 27.7248H15.2396L12.1251 30.8944L12.1386 35.4417L15.9603 39.3046L21.1594 39.2916L24.2643 36.1235H24.2636ZM26.6238 32.9077C26.5479 30.9795 25.8104 29.3833 24.707 28.0268L24.6966 30.9819L26.6246 32.9077H26.6238ZM11.712 30.6734L11.6848 28.1362C10.5918 29.4084 9.98772 30.888 9.86467 32.519L11.712 30.6734ZM34.9758 29.3809L34.7265 28.4811L34.3254 29.0626L34.9758 29.3809ZM9.32614 32.8964C9.38686 31.7755 9.65533 30.8993 9.97733 29.9971L6.95389 28.6067C6.35304 29.9291 6.03663 31.2653 5.91598 32.7068L9.32614 32.8964ZM1.98727 29.1444L1.65968 28.7022L1.4847 29.3396L1.98727 29.1444ZM33.0215 33.4422C32.9719 31.6986 32.6515 30.2296 32.0826 28.6747L30.7794 29.1638C31.2876 30.5729 31.5113 31.927 31.576 33.4576L33.0215 33.4422ZM3.63003 29.8813L3.83777 29.2335L3.3344 29.4554L3.63003 29.8813ZM27.1983 33.4244L30.9912 33.4632C30.9528 32.0363 30.7115 30.679 30.2209 29.376L26.7437 30.7252C26.9962 31.6614 27.0992 32.5514 27.1983 33.4235V33.4244ZM3.38713 30.466C3.38713 29.8935 2.9293 29.4303 2.3652 29.4303C1.8011 29.4303 1.34327 29.8943 1.34327 30.466C1.34327 31.0378 1.8011 31.5018 2.3652 31.5018C2.9293 31.5018 3.38713 31.0378 3.38713 30.466ZM35.0981 30.4547C35.0981 29.883 34.6402 29.4189 34.0761 29.4189C33.512 29.4189 33.0542 29.883 33.0542 30.4547C33.0542 31.0264 33.512 31.4905 34.0761 31.4905C34.6402 31.4905 35.0981 31.0264 35.0981 30.4547ZM35.4193 31.9934L35.3194 31.0807L34.8368 31.6322L35.4185 31.9942L35.4193 31.9934ZM1.62133 31.6662L1.13553 31.2054L1.04764 31.9772L1.62053 31.6662H1.62133ZM11.684 34.9274L11.66 31.369L9.90302 33.1514L11.684 34.9274ZM3.19617 32.2266L3.28646 31.5569L2.78468 31.8403L3.19617 32.2266ZM26.679 33.6244L24.6798 31.5941L24.6926 35.6514L26.679 33.6252V33.6244ZM35.4057 32.9668C35.4057 32.391 34.9455 31.9246 34.3774 31.9246C33.8093 31.9246 33.349 32.391 33.349 32.9668C33.349 33.5426 33.8093 34.0091 34.3774 34.0091C34.9455 34.0091 35.4057 33.5426 35.4057 32.9668ZM3.03876 33.0235C3.03876 32.4461 2.57694 31.9772 2.00645 31.9772C1.43596 31.9772 0.974134 32.4453 0.974134 33.0235C0.974134 33.6017 1.43596 34.0698 2.00645 34.0698C2.57694 34.0698 3.03876 33.6017 3.03876 33.0235ZM5.86565 37.6088C5.43019 36.0239 5.25441 34.678 5.33191 33.1458L3.54533 33.0105C3.43587 34.0568 3.56131 35.0351 3.80981 36.0515L4.30599 38.0841L5.86645 37.608L5.86565 37.6088ZM9.72964 36.3454C9.40285 35.304 9.30696 34.448 9.2822 33.4138L5.89041 33.1765C5.83289 34.6715 5.99269 36.0555 6.45771 37.4541L8.29862 36.8556L9.72884 36.3462L9.72964 36.3454ZM11.6744 35.6328L9.79836 33.7183C9.80555 35.6401 10.432 37.4517 11.6784 38.9272L11.6744 35.6336V35.6328ZM35.5231 34.5039L35.5399 33.7726L35.0957 34.1872L35.5231 34.5039ZM30.1594 38.2623C30.7203 36.8289 30.9464 35.4384 30.9784 33.9548L27.156 33.9013C27.0593 34.8529 26.921 35.6368 26.6622 36.5398L30.1586 38.2623H30.1594ZM33.0574 33.924L31.5824 33.954C31.489 35.5178 31.2844 36.9787 30.686 38.4955L32.0611 39.0349C32.6691 37.5011 33.1045 35.4975 33.0566 33.924H33.0574ZM3.23532 35.4417C3.23532 34.8691 2.77749 34.4043 2.21179 34.4043C1.6461 34.4043 1.18827 34.8683 1.18827 35.4417C1.18827 36.015 1.6461 36.479 2.21179 36.479C2.77749 36.479 3.23532 36.015 3.23532 35.4417ZM24.699 38.962C25.848 37.6525 26.4576 36.1138 26.615 34.3872L24.6519 36.4013L24.699 38.962ZM35.4752 35.4449C35.4752 34.8691 35.015 34.4026 34.4469 34.4026C33.8788 34.4026 33.4186 34.8691 33.4186 35.4449C33.4186 36.0207 33.8788 36.4871 34.4469 36.4871C35.015 36.4871 35.4752 36.0207 35.4752 35.4449ZM15.2923 39.2778L12.149 36.1324L12.1307 39.3151L15.2923 39.277V39.2778ZM33.6135 36.5981L33.2164 36.1891L33.0902 36.8985L33.6135 36.5981ZM1.85064 36.7925L1.35366 36.5973L1.51186 37.246L1.85144 36.7925H1.85064ZM35.2587 37.1917L35.325 36.5568L34.8632 36.7949L35.2587 37.1917ZM3.83857 37.812C3.83857 37.233 3.37594 36.7641 2.80465 36.7641C2.23337 36.7641 1.77074 37.233 1.77074 37.812C1.77074 38.3911 2.23337 38.86 2.80465 38.86C3.37594 38.86 3.83857 38.3911 3.83857 37.812ZM8.85872 41.9268L11.5394 39.5183C10.7963 38.7037 10.3201 37.8169 9.88385 36.8451L6.60313 37.9359C7.1097 39.3993 7.80563 40.7461 8.85792 41.9276L8.85872 41.9268ZM24.2675 39.2884L24.2468 36.8192L21.8154 39.2811L24.2675 39.2884ZM35.0861 37.961C35.0861 37.3836 34.6243 36.9156 34.0546 36.9156C33.4849 36.9156 33.0231 37.3836 33.0231 37.961C33.0231 38.5385 33.4849 39.0065 34.0546 39.0065C34.6243 39.0065 35.0861 38.5385 35.0861 37.961ZM27.6977 42.3228C28.726 41.1745 29.4491 40.0261 30.0004 38.7118L26.4928 36.999C26.0246 37.9424 25.5579 38.7717 24.8324 39.5783L27.6969 42.3228H27.6977ZM8.35375 42.2612C7.2735 40.9291 6.59274 39.6196 6.03024 38.0979L4.43463 38.5822C4.92362 40.2917 5.52607 41.7511 6.26355 43.3537L8.35455 42.2604L8.35375 42.2612ZM32.9783 38.9458L32.7003 38.3036L32.4246 39.1312L32.9775 38.9458H32.9783ZM2.52101 39.2009L1.85863 38.9037L2.1287 39.7662L2.52181 39.2017L2.52101 39.2009ZM29.8318 43.7028C30.7179 42.275 31.3483 40.9566 31.9116 39.4438L30.4822 38.9887C29.9021 40.4262 29.1599 41.534 28.1707 42.6718L29.8318 43.7028ZM4.48097 40.2456C4.48097 39.6698 4.02074 39.2033 3.45265 39.2033C2.88455 39.2033 2.42433 39.6698 2.42433 40.2456C2.42433 40.8214 2.88455 41.2878 3.45265 41.2878C4.02074 41.2878 4.48097 40.8214 4.48097 40.2456ZM34.2567 40.3233C34.2567 39.7483 33.7965 39.2819 33.2292 39.2819C32.6619 39.2819 32.2017 39.7483 32.2017 40.3233C32.2017 40.8983 32.6619 41.3648 33.2292 41.3648C33.7965 41.3648 34.2567 40.8983 34.2567 40.3233ZM15.715 39.7354L12.4479 39.767C13.9811 41.2546 15.8988 42.0426 18.0137 42.079L15.715 39.7354ZM20.6624 39.7572L16.4189 39.7629L18.5626 41.926L20.6624 39.7581V39.7572ZM23.9935 39.7629L21.3464 39.7402L19.1156 42.024C21.026 41.8256 22.6991 41.0716 23.9935 39.7629ZM13.0024 45.2163L14.5293 41.8199C13.5345 41.27 12.694 40.7072 11.8502 39.8771L9.15356 42.2904C10.245 43.5359 11.5394 44.477 13.0024 45.2155V45.2163ZM23.7482 45.2876C25.1808 44.5822 26.333 43.7522 27.3749 42.6856L24.5272 39.9702C23.7873 40.6302 23.0307 41.1874 22.147 41.6927L23.7482 45.2884V45.2876ZM32.0706 41.168L31.8293 40.6359L31.5385 41.3121L32.0706 41.168ZM5.04507 41.4538L4.76382 40.7331L4.46499 41.2141L5.04507 41.4538ZM34.3534 42.6135C34.4021 42.0102 35.1396 42.4354 34.5963 40.8497L33.4977 43.4007C33.9491 43.4015 34.3102 43.1488 34.3534 42.6135ZM2.07596 42.8565C2.1271 43.3974 2.59212 43.642 3.02598 43.5967L2.10073 41.002C1.50387 42.2953 1.99926 42.0483 2.07596 42.8565ZM3.19377 41.6587L2.64326 41.4619L2.88615 42.1965L3.19377 41.6595V41.6587ZM33.1829 42.5981C33.1829 42.0256 32.7242 41.5607 32.1593 41.5607C31.5944 41.5607 31.1358 42.0256 31.1358 42.5981C31.1358 43.1707 31.5944 43.6355 32.1593 43.6355C32.7242 43.6355 33.1829 43.1707 33.1829 42.5981ZM5.23683 42.6168C5.23683 42.0458 4.7806 41.5834 4.2173 41.5834C3.654 41.5834 3.19777 42.0458 3.19777 42.6168C3.19777 43.1877 3.654 43.6501 4.2173 43.6501C4.7806 43.6501 5.23683 43.1877 5.23683 42.6168ZM33.5272 42.3673L33.8173 41.6571L33.3115 41.7753L33.5272 42.3673ZM23.2808 45.4552L21.7067 41.8709C20.7048 42.2588 19.8491 42.4597 18.8295 42.5763L18.7177 46.4861C20.3772 46.3938 21.8617 46.1193 23.2808 45.456V45.4552ZM18.2223 46.478L18.3637 42.5933C17.1692 42.6127 16.0985 42.3325 14.9727 41.9875L13.449 45.4172C15.0143 46.1031 16.5579 46.44 18.2231 46.478H18.2223ZM10.2857 49.506L12.7211 45.75C11.1431 44.9207 9.83671 43.9587 8.67575 42.6443L6.49207 43.7659C7.55874 45.8974 8.7916 47.7228 10.2849 49.506H10.2857ZM5.99908 43.6234L5.60277 42.8613L5.38145 43.4193L5.99908 43.6234ZM30.9656 43.3602L30.7531 42.8127L30.4215 43.4298L30.9656 43.3594V43.3602ZM1.62692 43.0759C1.49189 44.0988 1.35366 45.1378 1.69643 46.2392C1.87861 45.7338 2.05199 43.3918 1.62692 43.0759ZM26.2874 48.7083C27.565 47.1842 28.6357 45.6949 29.5953 44.1085L27.8503 43.0322C26.7389 44.1563 25.5044 45.0568 24.051 45.8067L26.2874 48.7083ZM34.6706 46.1897C35.0757 45.1078 34.8839 44.1279 34.7992 43.1253C34.2775 42.9812 34.4804 46.2675 34.6706 46.1897ZM31.982 44.7725C31.982 44.1992 31.5233 43.7351 30.9584 43.7351C30.3935 43.7351 29.9349 44.2 29.9349 44.7725C29.9349 45.3451 30.3935 45.8099 30.9584 45.8099C31.5233 45.8099 31.982 45.3451 31.982 44.7725ZM6.3003 44.8511C6.3003 44.2794 5.84328 43.8161 5.27918 43.8161C4.71508 43.8161 4.25805 44.2794 4.25805 44.8511C4.25805 45.4228 4.71508 45.8861 5.27918 45.8861C5.84328 45.8861 6.3003 45.4228 6.3003 44.8511ZM32.3831 44.6324L32.7706 43.9246L32.1545 44.004L32.3831 44.6324ZM3.85056 46.6603C4.06309 46.8554 4.4602 46.9 4.68312 46.8352L3.24251 44.1158C3.04356 44.6535 3.05155 45.2779 3.18099 45.7524C3.86813 45.8512 3.61405 46.4432 3.85056 46.6603ZM32.7961 45.6099L33.1861 45.4455C33.2652 44.9904 33.2931 44.5061 33.1445 44.0939L31.7207 46.5258C31.9955 46.5453 32.3415 46.4772 32.5253 46.3436L32.7961 45.6099ZM7.14725 45.6901L6.7046 44.9507L6.50246 45.5783L7.14725 45.6909V45.6901ZM29.7423 45.4236L29.5218 44.8964L29.1559 45.4957L29.7415 45.4236H29.7423ZM30.67 46.857C30.67 46.2796 30.2082 45.8124 29.6393 45.8124C29.0704 45.8124 28.6086 46.2804 28.6086 46.857C28.6086 47.4336 29.0704 47.9017 29.6393 47.9017C30.2082 47.9017 30.67 47.4336 30.67 46.857ZM7.55315 46.9907C7.55315 46.4157 7.09292 45.9492 6.52563 45.9492C5.95833 45.9492 5.4981 46.4157 5.4981 46.9907C5.4981 47.5657 5.95833 48.0321 6.52563 48.0321C7.09292 48.0321 7.55315 47.5657 7.55315 46.9907ZM31.0775 46.8409L31.5465 46.1031L30.8713 46.1825L31.0775 46.8409ZM5.31913 46.2513L4.79977 46.2189C4.91723 46.4554 4.97316 46.5582 5.11378 46.7663L5.31913 46.2521V46.2513ZM16.2359 55.0469C16.7577 55.4275 17.2163 55.796 17.8491 56.0454L13.0815 46.0853L10.5958 49.8769C12.2801 51.7986 14.1665 53.5366 16.2351 55.0461L16.2359 55.0469ZM25.9934 49.0825L23.6731 46.1258L19.0564 55.8C21.5949 53.803 23.8696 51.5695 25.9934 49.0825ZM18.1831 51.6869L18.1871 47.0538C16.5643 47.0595 15.1709 46.6724 13.6815 46.2262L18.1248 55.5206L18.1831 51.6877V51.6869ZM18.6681 55.498L23.0722 46.2715C21.5597 46.7307 20.191 47.0571 18.6825 47.0692L18.6521 51.4674L18.6681 55.4972V55.498ZM33.0143 49.655C33.2795 48.5302 33.2763 47.5009 33.0238 46.4238C32.7218 47.4831 32.7282 48.646 33.0143 49.655ZM1.97609 46.8271C1.82507 46.9648 1.65648 47.0976 1.58218 47.0449C1.30173 46.8489 1.41119 46.4489 1.25379 46.5258C0.602597 46.8457 0.451584 48.0937 1.06842 48.7723C1.31131 49.0404 1.68924 49.0136 1.91217 48.7278C2.33564 48.1836 2.37079 47.3357 1.97529 46.8271H1.97609ZM35.317 48.7804C35.8819 48.1949 35.8252 46.8368 35.0773 46.508L34.8528 46.9793C34.8048 47.0798 34.5092 46.955 34.3894 46.8765C34.0546 47.4223 34.0865 48.2362 34.4892 48.7593C34.6994 49.0323 35.0717 49.0339 35.317 48.7796V48.7804ZM3.30483 46.806C3.18259 47.8823 3.11787 48.914 3.39113 50.0332C3.66838 49.9506 3.74349 46.5744 3.30483 46.806ZM28.3121 47.3859L28.1651 46.8773L27.7336 47.5065L28.3129 47.3867L28.3121 47.3859ZM8.41048 47.6839L7.95105 47.002L7.77527 47.6474L8.41048 47.6839ZM30.6053 48.876C30.7986 48.1212 31.3763 48.8387 31.111 47.4231L29.5849 49.5748C29.8063 49.6137 30.0611 49.5894 30.2657 49.4963C30.4567 49.4088 30.5342 49.1554 30.6053 48.8768V48.876ZM5.63873 49.174C5.70505 49.4501 5.79134 49.6947 5.96313 49.7781C6.20842 49.8964 6.47688 49.9158 6.68942 49.847L5.21605 47.7576C4.92841 49.1311 5.49331 48.5658 5.63873 49.1732V49.174ZM29.2414 48.8363C29.2414 48.2621 28.7819 47.7965 28.2154 47.7965C27.6489 47.7965 27.1895 48.2621 27.1895 48.8363C27.1895 49.4104 27.6489 49.8761 28.2154 49.8761C28.7819 49.8761 29.2414 49.4104 29.2414 48.8363ZM8.99615 49.059C8.99615 48.4816 8.53433 48.0135 7.96464 48.0135C7.39494 48.0135 6.93312 48.4816 6.93312 49.059C6.93312 49.6364 7.39494 50.1045 7.96464 50.1045C8.53433 50.1045 8.99615 49.6364 8.99615 49.059ZM29.6457 48.8784L30.1083 48.2095L29.509 48.284L29.6457 48.8776V48.8784ZM6.74136 48.4071L6.08378 48.4006L6.5456 49.0355L6.74216 48.4063L6.74136 48.4071ZM26.9099 49.3003L26.794 48.6735L26.2603 49.3384L26.9091 49.3003H26.9099ZM9.93339 49.6566L9.38846 49.0274L9.25343 49.672L9.93339 49.6566ZM30.9161 52.4805C31.294 51.3767 31.139 50.3895 31.0359 49.3667C30.5429 49.4177 30.7251 52.4174 30.9161 52.4805ZM5.44057 49.9458C5.43578 49.8761 5.21845 49.723 5.21286 49.7805C5.11298 50.8285 5.00911 51.8343 5.29356 52.9081C5.69945 51.9687 5.50689 50.9354 5.44137 49.9458H5.44057ZM27.6985 50.7191C27.6985 50.1458 27.2398 49.6801 26.6734 49.6801C26.1069 49.6801 25.6482 50.145 25.6482 50.7191C25.6482 51.2933 26.1069 51.7582 26.6734 51.7582C27.2398 51.7582 27.6985 51.2933 27.6985 50.7191ZM10.5958 51.0334C10.5958 50.46 10.1371 49.996 9.57224 49.996C9.00734 49.996 8.54871 50.4608 8.54871 51.0334C8.54871 51.6059 9.00734 52.0708 9.57224 52.0708C10.1371 52.0708 10.5958 51.6059 10.5958 51.0334ZM32.709 52.2319C32.9336 52.5445 33.3762 52.5299 33.5951 52.2659C34.5084 51.167 33.4713 49.8389 33.3722 50.0478L33.2795 50.2438C33.238 50.3312 33.0686 50.5556 32.9879 50.5021L32.6867 50.3005C32.28 50.8325 32.2936 51.6545 32.7098 52.2327L32.709 52.2319ZM28.5215 50.2656L28.0085 50.2405L28.102 50.771L28.5215 50.2664V50.2656ZM3.70833 50.5928C3.52696 50.6916 3.3328 50.7985 3.28326 50.7264L3.09869 50.4584C3.07552 50.4252 3.03157 50.2794 2.99881 50.298C2.3692 50.6616 2.25654 51.797 2.73115 52.4603C2.85979 52.6401 3.10668 52.7551 3.31682 52.7389C4.02314 52.6838 4.24446 51.201 3.70833 50.592V50.5928ZM28.3832 51.78C28.5334 51.2601 29.1894 51.7112 28.9481 50.3442L27.1312 52.423C27.4356 52.5672 27.9254 52.5081 28.1923 52.2902C28.2786 52.2198 28.3281 51.9679 28.3832 51.78ZM8.26746 50.4794L7.60988 50.4624L8.19555 51.1767L8.26746 50.4794ZM25.3246 51.0779L25.2655 50.4689L24.7525 51.0455L25.3246 51.0779ZM8.05892 52.7356C8.44564 52.9624 8.84993 53.0085 9.21668 52.896L7.35899 50.758C7.29587 51.1378 7.34381 51.5225 7.46765 51.8383L7.79605 52.0068L8.05892 52.7364V52.7356ZM11.5306 51.4545L10.9969 50.8965L10.9313 51.4682L11.5298 51.4537L11.5306 51.4545ZM26.0238 52.474C26.0238 51.9023 25.5667 51.4391 25.0026 51.4391C24.4385 51.4391 23.9815 51.9023 23.9815 52.474C23.9815 53.0458 24.4385 53.509 25.0026 53.509C25.5667 53.509 26.0238 53.0458 26.0238 52.474ZM12.3328 52.832C12.3328 52.2513 11.8686 51.7808 11.2957 51.7808C10.7228 51.7808 10.2586 52.2513 10.2586 52.832C10.2586 53.4126 10.7228 53.8832 11.2957 53.8832C11.8686 53.8832 12.3328 53.4126 12.3328 52.832ZM26.8899 52.1299L26.3458 52.0659L26.4049 52.6457L26.8899 52.1307V52.1299ZM23.6371 52.8109L23.6036 52.2019L23.0267 52.7834L23.6371 52.8109ZM28.6613 55.438C28.9721 54.3982 28.9681 53.313 28.7044 52.2659C28.3585 53.2928 28.4056 54.3885 28.6613 55.438ZM9.95016 52.3931L9.29178 52.4522L9.86387 53.0231L9.95016 52.3931ZM13.2133 53.0555L12.7155 52.6117L12.6652 53.1624L13.2133 53.0555ZM7.54676 52.7089C7.28948 53.7649 7.25112 54.842 7.56913 55.8794C7.87435 54.825 7.90631 53.7422 7.54676 52.7089ZM30.7219 55.0509C30.9744 55.3239 31.314 55.2421 31.5241 55.025C32.5029 54.016 31.4083 52.5567 31.3004 52.8385L31.2229 53.0409C31.1845 53.1414 31.0599 53.3325 30.9624 53.3373C30.8785 53.3406 30.7427 53.2296 30.6204 53.1211C30.2505 53.6418 30.2289 54.5189 30.7219 55.0509ZM26.3426 54.1885C26.4992 53.8969 26.5671 53.4483 26.5455 53.0523L24.5232 55.0436C24.7885 55.1627 25.1425 55.1829 25.4717 55.1181C26.035 55.0072 25.6299 54.3755 26.3434 54.1885H26.3426ZM5.62914 53.5009C5.45816 53.6305 5.31593 53.7455 5.24322 53.7155C5.17051 53.6856 5.08022 53.5576 5.03868 53.4726L4.92202 53.2353C4.82454 53.0369 3.91607 54.2694 4.65915 55.3571C4.75423 55.4955 5.00911 55.6364 5.14415 55.6259C5.2648 55.617 5.5005 55.4923 5.58679 55.3903C6.05421 54.8347 6.00787 54.0403 5.62834 53.5009H5.62914ZM24.2715 54.203C24.2715 53.6297 23.8129 53.164 23.2464 53.164C22.6799 53.164 22.2213 53.6289 22.2213 54.203C22.2213 54.7772 22.6799 55.2421 23.2464 55.2421C23.8129 55.2421 24.2715 54.7772 24.2715 54.203ZM14.0786 54.5189C14.0786 53.9471 13.6208 53.4831 13.0567 53.4831C12.4926 53.4831 12.0348 53.9471 12.0348 54.5189C12.0348 55.0906 12.4926 55.5547 13.0567 55.5547C13.6208 55.5547 14.0786 55.0906 14.0786 54.5189ZM10.7132 55.4056C11.0744 55.6615 11.6137 55.7433 11.9613 55.4988L9.88864 53.603C9.90942 54.9262 10.3249 54.216 10.5095 54.8647C10.5486 55.0023 10.6061 55.3295 10.714 55.4065L10.7132 55.4056ZM25.1385 53.9236L24.6167 53.8402L24.6766 54.3747L25.1393 53.9228L25.1385 53.9236ZM21.8633 54.4711L21.8442 53.9115L21.3408 54.4015L21.8633 54.4711ZM11.6744 54.7343L11.692 54.2233L11.1774 54.2832L11.6744 54.7335V54.7343ZM22.4626 55.8268C22.4626 55.2518 22.0032 54.7861 21.4359 54.7861C20.8686 54.7861 20.4091 55.2518 20.4091 55.8268C20.4091 56.4017 20.8686 56.8674 21.4359 56.8674C22.0032 56.8674 22.4626 56.4017 22.4626 55.8268ZM16.021 55.9709C16.021 55.3935 15.5592 54.9254 14.9895 54.9254C14.4198 54.9254 13.958 55.3935 13.958 55.9709C13.958 56.5483 14.4198 57.0164 14.9895 57.0164C15.5592 57.0164 16.021 56.5483 16.021 55.9709ZM26.2035 55.0056C25.8552 55.366 25.9582 58.2619 26.162 58.1315C26.5112 57.9072 26.4512 55.4729 26.2035 55.0056ZM10.1212 55.3789C9.96934 56.3807 9.88305 57.3808 10.1283 58.4611C10.5183 58.3364 10.4943 55.4259 10.1212 55.3789ZM20.0768 56.0827L20.0464 55.5053L19.4919 55.9839L20.0768 56.0827ZM23.0547 56.9492C23.081 56.8803 23.1633 56.7054 23.2336 56.7095L23.5652 56.7273C23.7394 56.4382 23.8936 56.0381 23.8936 55.6373L21.7707 57.4408C22.1222 57.5889 22.5169 57.5711 22.8669 57.4383L23.0539 56.9492H23.0547ZM28.8043 58.1591C28.9417 58.1607 29.2318 58.023 29.3213 57.8943C29.7775 57.2334 29.7519 56.2722 29.0895 55.7514L28.8211 56.328C28.7452 56.3564 28.5494 56.3378 28.5079 56.2754L28.3217 56.0017C27.7984 56.6933 28.1331 58.1526 28.8035 58.1591H28.8043ZM13.5153 57.8141C13.9963 58.0611 14.5053 58.006 14.9176 57.7566L12.6132 56.0543C12.6716 56.3847 12.7403 56.6244 12.8194 56.8803L13.2932 57.0334L13.5145 57.8141H13.5153ZM7.92069 56.4463C7.75849 56.6755 7.69297 56.7702 7.62266 56.8237C7.56433 56.8682 7.3526 56.7832 7.33182 56.7143L7.17202 56.1806C6.47769 56.724 6.49047 57.7963 7.07295 58.4125C7.33582 58.6911 7.75529 58.5575 7.95345 58.2603C8.32179 57.7072 8.28344 56.92 7.92069 56.4463ZM18.0105 57.3784C18.0105 56.8075 17.5543 56.345 16.991 56.345C16.4277 56.345 15.9715 56.8075 15.9715 57.3784C15.9715 57.9493 16.4277 58.4117 16.991 58.4117C17.5543 58.4117 18.0105 57.9493 18.0105 57.3784ZM20.5354 57.4043C20.5354 56.8318 20.0776 56.3677 19.5127 56.3677C18.9478 56.3677 18.4899 56.8318 18.4899 57.4043C18.4899 57.9769 18.9478 58.4409 19.5127 58.4409C20.0776 58.4409 20.5354 57.9769 20.5354 57.4043ZM21.4559 57.2245L20.9037 57.1492L20.8742 57.7007L21.4559 57.2245ZM15.6071 57.7477L15.6039 57.2658L15.0654 57.397L15.6071 57.7477ZM23.2976 60.5845C23.6619 59.5496 23.5117 58.551 23.3415 57.5331C23.1609 57.7776 23.1394 58.0263 23.1034 58.3032C23.1985 59.0547 22.9324 59.8176 23.2984 60.5845H23.2976ZM13.2101 58.0036C13.2061 57.9412 12.9568 57.8797 12.9536 57.9339C12.9097 58.8223 12.7003 59.982 13.0847 60.9109C13.3771 59.9553 13.2788 58.9989 13.2101 58.0036ZM18.5099 59.505L19.3864 58.8612C18.9134 58.7154 18.5507 58.4814 18.2686 58.0716C17.9682 58.4061 17.6829 58.615 17.2347 58.8312L18.5099 59.5058V59.505ZM16.6147 59.8735C17.0509 60.0379 17.6238 59.9229 17.9986 59.65L15.4393 58.1048C15.3666 58.4458 15.5872 58.9009 15.7853 59.1544C15.9291 59.126 16.1385 59.079 16.22 59.1276C16.4181 59.2451 16.3798 59.7852 16.6131 59.8735H16.6147ZM20.3189 59.0556L20.5841 59.173C20.7887 58.8823 20.9724 58.5065 20.9796 58.1145L18.9054 59.6945C19.2402 59.816 19.5574 59.7868 19.8866 59.6848C19.9657 59.5398 20.1279 58.9697 20.3189 59.0547V59.0556ZM26.4105 60.9012C26.5327 60.8987 26.7676 60.7854 26.8611 60.672C27.4116 60.0023 27.3269 58.9811 26.6374 58.4482C26.5247 58.5057 26.4305 59.2928 26.1772 59.1228C26.1005 59.0718 25.9902 58.9551 25.856 58.8215C25.3981 59.5439 25.7737 60.9149 26.4105 60.9012ZM10.535 59.1131L10.1931 59.3868C10.1427 59.4273 9.94217 59.3171 9.92459 59.2556L9.7608 58.6944C9.06007 59.2175 9.07845 60.1002 9.4412 60.8088C9.52829 60.9797 9.77998 61.1538 9.94217 61.1595C10.1379 61.1668 10.376 61.0259 10.4919 60.8493C10.8506 60.3051 10.8203 59.599 10.5342 59.1122L10.535 59.1131ZM20.2733 59.9464C20.2677 59.9723 20.179 60.0865 20.1758 60.1318C20.1215 60.8882 19.8746 62.1273 20.3356 62.9087C20.6105 62.716 20.4251 59.2702 20.2733 59.9464ZM16.0825 59.952C15.8037 59.9609 15.8109 63.1808 16.0993 62.8934C16.3182 62.6755 16.4029 60.3974 16.0825 59.952ZM18.255 65.5391C18.617 63.6975 18.4899 61.9086 18.251 60.1456C18.0345 61.9556 17.9522 63.7145 18.255 65.5391ZM23.4566 63.325C23.6044 63.3282 23.8648 63.2157 23.9655 63.0796C24.4553 62.4172 24.4194 61.4567 23.7354 60.9449C23.5988 60.9182 23.5285 61.7507 23.2272 61.5498C23.1513 61.4988 23.069 61.3668 22.95 61.1935C22.477 61.8398 22.7111 63.3096 23.4566 63.325ZM13.425 61.5369C13.2381 61.796 12.9576 61.9539 12.8785 61.7847L12.6085 61.2048C11.9493 61.7474 11.9397 62.7581 12.467 63.4068C12.5557 63.5161 12.845 63.6198 12.9704 63.5947C13.6991 63.4448 13.8557 62.0163 13.425 61.5377V61.5369ZM16.49 63.5161L16.2128 63.9372C16.1704 64.0012 15.9155 63.968 15.8836 63.8951L15.6263 63.3096C15.0223 63.8927 15.0806 64.7705 15.5192 65.4217C15.6031 65.5456 15.8708 65.667 16.0042 65.6549C16.7417 65.5909 16.9902 64.1688 16.4908 63.5161H16.49ZM19.905 65.3779C20.0176 65.5447 20.2677 65.6743 20.4107 65.6695C20.5322 65.6654 20.7783 65.5577 20.8558 65.4476C21.324 64.7892 21.3432 63.8465 20.7168 63.3185L20.4227 63.9162C20.382 63.9996 20.1031 63.9227 20.0648 63.8409L19.9114 63.5161C19.563 64.0628 19.5007 64.7803 19.905 65.3787V65.3779ZM18.6338 66.0452C18.4867 66.2339 18.3645 66.4169 18.2638 66.4048C18.1631 66.3926 18.0377 66.2161 17.9258 66.059C17.4632 66.5271 17.3681 67.2956 17.6654 67.9184C17.7812 68.1621 18.0225 68.3613 18.259 68.3694C18.5147 68.3792 18.7576 68.2091 18.8743 67.9621C19.1763 67.324 19.1371 66.5481 18.6338 66.0444V66.0452Z" fill="white"/>
<path d="M186.641 35.089V36.1086C186.629 36.4438 186.628 36.8083 186.587 37.1711L186.532 37.6634C186.141 41.1255 184.612 44.4377 182.03 46.7911C179.585 49.0181 176.34 50.2134 173.051 50.3195C172.37 50.3794 171.787 50.3835 171.133 50.3122C168.03 50.1794 164.722 48.9072 162.452 46.7935C161.306 45.7269 160.391 44.5989 159.659 43.2092C158.574 41.1473 157.975 38.8766 157.844 36.5313C157.789 35.911 157.786 35.3643 157.844 34.7521C158.075 29.5959 160.594 24.8268 165.177 22.403C167.98 20.921 170.939 20.627 174.067 20.8659C175.642 20.9858 177.15 21.3939 178.575 22.0223C179.99 22.6467 181.189 23.4906 182.314 24.5612C184.999 27.1154 186.683 31.3233 186.641 35.0898V35.089ZM181.679 42.6771C183.97 37.4602 183.558 30.6592 180.299 25.9452C179.575 24.8989 178.693 24.1287 177.667 23.4088C176.166 22.3552 174.404 21.8482 172.568 21.8409L171.983 21.8385C169.341 21.828 166.9 23.0014 165.082 24.9102C164.351 25.6779 163.786 26.5137 163.293 27.4725C160.83 32.2635 160.763 38.0983 162.957 42.997C164.697 46.8801 168.047 49.3105 172.322 49.2578C174.607 49.2295 176.795 48.5419 178.526 47.0259C179.983 45.7496 180.893 44.4652 181.678 42.6771H181.679Z" fill="white"/>
<path d="M140.968 48.5177C141.62 49.0927 142.936 49.1842 143.062 49.4506C143.092 49.5146 142.985 49.73 142.891 49.73H134.267C134.144 49.7292 134.088 49.432 134.151 49.3883C134.572 49.0911 136.933 49.0522 136.933 46.7109L136.931 24.4001C136.931 23.7303 136.688 23.0614 136.278 22.6233C135.356 21.6402 133.751 22.0184 134.295 21.3883L144.43 21.3956C146.96 21.3972 148.828 21.6709 150.966 23.0387C152.964 24.3175 154.244 26.3129 154.656 28.6752C155.281 32.2676 153.89 35.7896 150.816 37.7364C149.221 38.6369 147.498 39.2289 145.635 39.2378L140.177 39.2645L140.187 46.566C140.188 47.3159 140.454 47.984 140.968 48.5169V48.5177ZM149.246 24.524C147.905 23.2048 146.18 22.3836 144.277 22.3787L140.178 22.369L140.183 38.2523L144.435 38.2271C146.316 38.2158 147.993 37.3501 149.284 36.0179C151.998 32.9827 151.923 27.5568 149.246 24.524Z" fill="white"/>
<path d="M147.13 61.3389C146.971 61.3664 146.731 61.4709 146.609 61.4709L144.343 61.4765C144.227 61.4765 143.982 61.3389 143.868 61.3259C139.824 60.8756 136.234 59.0276 133.271 56.2588C132.702 55.7267 132.151 55.2003 131.634 54.6172L131.025 53.9297C129.078 51.7302 126.74 48.2342 125.203 45.671C123.985 43.6408 122.687 41.7369 121.277 39.8556C120.755 39.1576 120.191 38.564 119.566 37.9995C118.417 36.9621 117.014 36.3896 115.434 36.5531L115.447 46.4274C115.448 47.2227 115.715 47.9677 116.269 48.4714C117.132 49.257 118.131 49.163 118.369 49.3882C118.424 49.4392 118.373 49.7275 118.289 49.7275H109.464C109.381 49.7283 109.319 49.427 109.379 49.3793C109.649 49.1622 110.518 49.1719 111.233 48.6245C111.81 48.1823 112.18 47.4421 112.18 46.6355L112.177 24.3992C112.177 23.727 111.907 23.0719 111.498 22.6313C110.985 22.0798 110.277 21.8911 109.539 21.8344C109.387 21.8231 109.315 21.3955 109.447 21.3955H118.623C119.57 21.3963 120.416 21.4206 121.359 21.5672C123.311 21.8701 125.208 22.6289 126.686 23.9862C128.361 25.524 129.178 27.8515 128.793 30.1053C128.532 31.631 127.731 32.9834 126.606 34.0014C124.894 35.5481 122.757 36.2689 120.401 36.5151C121.234 37.0212 122.022 37.4488 122.727 38.0529L123.808 38.977C125.516 40.4387 128.463 44.2214 129.818 46.1529C131.577 48.6626 133.297 51.1131 135.194 53.5021C136.07 54.6051 137.022 55.6595 138.027 56.6264C140.815 59.3062 144.815 61.4539 148.676 59.8779C149.682 59.4673 150.469 58.681 150.863 57.6898C151.328 56.5236 150.988 55.3307 150.134 54.4909C149.872 54.2334 150.105 53.7426 150.35 53.5256C151.233 52.7449 152.603 52.7757 153.417 53.6625C153.591 53.8528 153.726 54.2107 153.791 54.4529C154.222 56.0644 153.654 57.5942 152.513 58.7255C151.746 59.486 150.966 60.1525 149.953 60.5663C149.047 60.9372 148.14 61.1615 147.13 61.3372V61.3389ZM125.334 29.6469C125.557 27.564 124.802 25.5119 123.217 24.1813C121.835 23.0217 120.103 22.3859 118.318 22.3754L115.437 22.3584L115.434 35.5538L118.607 35.5287C120.068 35.5174 121.427 35.0112 122.619 34.1998C124.169 33.1437 125.126 31.5791 125.334 29.6453L125.334 29.6469Z" fill="white"/>
<path d="M93.7634 37.1184L89.8379 37.12L86.4653 37.1062L85.3379 39.7455L82.9544 45.177C82.4351 46.361 81.4099 47.9701 82.5693 48.8043C83.1486 49.2213 83.5824 49.1387 83.8301 49.3882C83.8877 49.4465 83.7798 49.725 83.6639 49.725L78.1396 49.7234C78.0166 49.7234 78.0493 49.3258 78.17 49.291C79.9318 48.7824 80.6844 47.8584 81.4004 46.2266L83.3172 41.8575L85.6814 36.4738L90.5538 25.3969C90.8094 24.8154 91.0507 24.2348 91.2713 23.6541C90.9181 22.56 89.7004 22.0304 88.7328 21.7413C88.6625 21.7081 88.6625 21.3931 88.7944 21.3931L93.7466 21.4044L95.3973 25.2422L97.951 31.0779L101.763 39.7495L103.208 43.0107C103.844 44.4474 104.415 45.867 105.157 47.2575C105.732 48.3354 106.81 48.9897 107.916 49.325C108.009 49.3533 108.03 49.7259 107.885 49.7259H99.7327C99.6504 49.7259 99.5961 49.4934 99.6297 49.4489C99.8558 49.146 100.505 49.2408 101.048 48.7484C101.527 48.3143 101.579 47.5725 101.312 46.9708L99.1391 42.0535L96.9594 37.1208L93.7658 37.1192L93.7634 37.1184ZM96.4864 36.1191L93.8856 30.102L91.7395 25.1823L86.9287 36.1288L96.4864 36.1199V36.1191Z" fill="white"/>
<path d="M70.0392 49.7664C66.0258 50.8411 61.362 50.0045 58.309 47.0559C57.5212 46.2955 57.5724 46.1449 57.574 45.1488L57.5804 41.2559C57.5804 41.1547 57.5548 41.0105 57.6139 40.983C57.673 40.9555 57.8488 40.9571 57.8944 40.983C58.5983 43.6465 59.8991 45.8703 62.1011 47.5046C63.8541 48.8052 65.9044 49.3899 68.0617 49.1339C69.4104 48.9744 70.6505 48.6019 71.7939 47.8609C73.479 46.7701 74.4921 44.7519 73.9975 42.7363C73.6851 41.464 72.7527 40.4833 71.6612 39.8233C67.5288 37.3234 62.8298 36.9265 59.2758 33.6208C58.4289 32.5713 57.6587 31.4383 57.5468 30.0478C57.4693 29.0857 57.4605 28.1034 57.5452 27.134C57.7418 24.89 59.442 22.9407 61.39 21.9511C63.6856 20.7841 66.2671 20.5752 68.7465 21.1891C70.418 21.6029 71.9289 22.3034 73.2113 23.442C73.6172 23.8024 74.5496 24.6697 74.6583 25.188L73.8305 28.8841C73.8177 28.9424 73.7386 29.0655 73.6939 29.1044C73.638 29.153 73.4478 29.1295 73.3751 29.0955C72.4762 25.9266 70.3573 22.2856 66.7737 21.8572C64.733 21.6134 62.6844 22.1641 61.1487 23.5238C60.0645 24.4843 59.4021 25.7687 59.3022 27.2077C59.1033 30.0713 61.4931 31.5606 63.787 32.4627L70.5083 35.106C71.7851 35.6081 72.8989 36.3135 73.916 37.2189C75.9439 39.024 76.7948 41.7515 76.1109 44.4029C75.84 45.4524 75.3702 46.3773 74.6056 47.1709C73.3743 48.4488 71.7563 49.3064 70.0384 49.7664H70.0392Z" fill="white"/>
</g>
<defs>
<clipPath id="clip0_182_35">
<rect width="195" height="68" fill="white"/>
</clipPath>
</defs>
</svg>
